<?xml version="1.0" encoding="UTF-8"?><svg id="a" xmlns="http://www.w3.org/2000/svg" viewBox="0 0 200 120"><defs><style>.b{fill:#fff;stroke-width:0px;}</style></defs><path class="b" d="M170.99,19.22c-10.03-6.88-22.12-12.38-35.38-15.63-3.24-.79-6.59-1.47-10.03-1.97-.1,0-.29,0-.39-.1-4.82,3.54-9.34,7.57-13.37,11.79,4.42-.69,8.94-1.08,13.66-1.28,16.22-.49,31.55,2.16,45.51,7.18"/><path class="b" d="M107.69,51.66c6.29-4.62,13.17-8.85,20.64-12.29,18.28-8.65,37.55-12.29,55.63-11.5-15.63-6.88-33.52-10.52-52.39-9.83-9.34.29-18.28,1.67-26.83,3.93-4.23,5.7-7.76,11.89-10.42,18.28,4.03,4.03,8.55,7.86,13.37,11.4"/><path class="b" d="M88.33,69.64c5.01-5.8,10.71-11.3,17-16.22-4.32-3.15-8.45-6.49-12.29-10.03-2.95,8.35-4.62,17.1-4.72,26.24"/><path class="b" d="M93.04,35.83c2.06-4.32,4.42-8.55,6.98-12.48-5.41,1.67-10.52,3.64-15.53,6,2.36,2.95,4.91,5.9,7.57,8.65.29-.69.59-1.47.98-2.16"/><path class="b" d="M198.9,107.48h-.69c-9.34,0-16.02-6-16.02-14.15v-.2c0-7.86,6.78-13.96,15.43-13.96h1.38v-9.44h-1.28c-16.91,0-29.68,10.12-29.68,23.59v.2c0,13.07,12.97,23.39,29.39,23.39h1.47v-9.44h0Z"/><path class="b" d="M27.98,87.73c-9.93-2.16-11.4-3.15-11.4-6.29v-.1c0-2.36,2.56-4.13,7.37-4.13,2.46,0,5.7.69,7.96,1.47v-10.03c-2.06-.39-5.31-.79-7.86-.79-11.79,0-20.15,5.8-20.15,14.45v.1c0,9.53,7.47,12.19,19.17,14.65,9.63,2.06,10.52,3.44,10.52,6.09v.1c0,2.85-3.15,4.52-8.35,4.52-6.59,0-11.01-2.26-16.12-5.8l-7.47,7.47c6.88,5.11,14.65,7.67,23.39,7.67,12.48,0,21.23-5.31,21.23-14.84v-.1c0-8.35-6.59-11.89-18.28-14.45"/><path class="b" d="M57.07,91.96c.98-5.11,4.42-8.35,9.63-8.35s8.65,3.34,9.34,8.35h-18.97ZM66.7,74.66c-12.97,0-22.02,9.24-22.02,20.44v.2c0,11.99,9.83,20.35,23.2,20.35.39,0,1.67,0,1.97-.1v-8.94c-.29,0-1.47.1-1.87.1-5.6,0-9.63-2.65-10.91-7.67h30.67c.1-.98.2-1.67.2-2.75v-.29c.2-11.11-6.39-21.33-21.23-21.33"/><path class="b" d="M128.13,94.02c0-10.62-6.49-18.97-20.25-18.97s-20.25,8.35-20.25,18.97v20.84h12.78v-21.62c.2-3.93,1.77-8.55,7.57-8.55s7.37,4.62,7.67,8.55v21.62h12.58v-20.84h-.1Z"/><path class="b" d="M148.87,74.85h-3.05v9.53c2.46,0,5.8.39,7.27,1.18,2.16,1.18,3.34,3.15,3.44,5.8-3.05-.39-6.39-.59-9.34-.69-12.09-.29-17.99,3.64-19.17,10.03,0,.1-.1.2-.1.39v.1c-.1.59-.2,1.28-.2,1.97v.1c0,7.76,6.88,12.09,15.23,12.09,6.19,0,10.42-1.97,13.47-5.01v4.52h12.19v-23.1c0-10.62-6-16.91-19.76-16.91M156.54,100.9c-1.08,5.7-7.08,6.59-8.35,6.68-9.63.49-9.93-6.09-6.68-8.06,4.32-2.65,15.14-1.18,15.14-1.18,0,.39.1,1.38-.1,2.56"/></svg>